<!--?xml version="1.0" standalone="no"?-->
              <svg id="sw-js-blob-svg" viewBox="0 0 100 100" xmlns="http://www.w3.org/2000/svg" version="1.1">
                    <defs> 
                        <linearGradient id="sw-gradient" x1="0" x2="1" y1="1" y2="0">
                            <stop id="stop1" stop-color="rgba(164, 208, 255, 1)" offset="0%"></stop>
                            <stop id="stop2" stop-color="rgba(164, 208, 255, 1)" offset="100%"></stop>
                        </linearGradient>
                    </defs>
                <path fill="url(#sw-gradient)" d="M17.2,-27.1C22.8,-26.5,28.2,-23,33.5,-18C38.8,-12.9,43.9,-6.5,41.2,-1.5C38.5,3.4,28.1,6.8,22.1,10.6C16.1,14.4,14.6,18.6,11.7,20.2C8.8,21.9,4.4,21.1,-1,22.8C-6.3,24.5,-12.7,28.7,-18.6,28.7C-24.5,28.8,-30,24.6,-31.3,19.1C-32.5,13.7,-29.6,6.8,-28.6,0.6C-27.6,-5.7,-28.6,-11.4,-27,-16.2C-25.3,-21.1,-21.1,-25.1,-16.1,-26.1C-11.2,-27,-5.6,-25,0.1,-25.1C5.8,-25.3,11.6,-27.7,17.2,-27.1Z" width="100%" height="100%" transform="translate(50 50)" stroke-width="0" style="transition: 0.3s;" stroke="url(#sw-gradient)"></path>
              </svg>