<!--?xml version="1.0" standalone="no"?-->
              <svg id="sw-js-blob-svg" viewBox="0 0 100 100" xmlns="http://www.w3.org/2000/svg" version="1.1">
                    <defs> 
                        <linearGradient id="sw-gradient" x1="0" x2="1" y1="1" y2="0">
                            <stop id="stop1" stop-color="rgba(164, 208, 255, 1)" offset="0%"></stop>
                            <stop id="stop2" stop-color="rgba(164, 208, 255, 1)" offset="100%"></stop>
                        </linearGradient>
                    </defs>
                <path fill="url(#sw-gradient)" d="M6.1,-12.4C7.2,-9.9,7,-6.9,13.4,-4.8C19.7,-2.6,32.6,-1.3,35.5,1.7C38.4,4.7,31.4,9.4,26.9,14.7C22.4,20,20.4,25.9,16.3,31.4C12.3,36.9,6.1,41.9,3,36.7C-0.1,31.5,-0.2,15.9,-6.7,11.9C-13.2,7.8,-26.1,15.2,-32,15.1C-38,15,-36.9,7.5,-37.5,-0.3C-38,-8.2,-40.3,-16.3,-36.5,-20.1C-32.7,-23.9,-22.9,-23.3,-15.8,-22.3C-8.7,-21.3,-4.4,-20,-0.9,-18.3C2.5,-16.7,5,-14.8,6.1,-12.4Z" width="100%" height="100%" transform="translate(50 50)" stroke-width="0" style="transition: 0.3s;" stroke="url(#sw-gradient)"></path>
              </svg>